<?xml version="1.0" encoding="UTF-8"?>
<svg xmlns="http://www.w3.org/2000/svg" width="512" height="512" viewBox="0 0 512 512"><g><path d="M476,48H36A28.031,28.031,0,0,0,8,76V372a28.031,28.031,0,0,0,28,28H182.24l-4.8,24H136a8,8,0,0,0-8,8v24a8,8,0,0,0,8,8H376a8,8,0,0,0,8-8V432a8,8,0,0,0-8-8H334.4L329,400H476a28.031,28.031,0,0,0,28-28V76A28.031,28.031,0,0,0,476,48ZM368,440v8H144v-8ZM193.76,424l4.8-24H312.6l5.4,24ZM488,372a12.01,12.01,0,0,1-12,12H36a12.01,12.01,0,0,1-12-12V352H488Zm0-36H24V76A12.01,12.01,0,0,1,36,64H476a12.01,12.01,0,0,1,12,12Z"/><path d="M232,240h48a16.019,16.019,0,0,0,16-16V176a16.019,16.019,0,0,0-16-16H232a16.019,16.019,0,0,0-16,16v48A16.019,16.019,0,0,0,232,240Zm0-64h48l.01,48H232Z"/><path d="M232,152h48a16.019,16.019,0,0,0,16-16V88a16.019,16.019,0,0,0-16-16H232a16.019,16.019,0,0,0-16,16v48A16.019,16.019,0,0,0,232,152Zm0-64h48l.01,48H232Z"/><path d="M232,328h48a16.019,16.019,0,0,0,16-16V264a16.019,16.019,0,0,0-16-16H232a16.019,16.019,0,0,0-16,16v48A16.019,16.019,0,0,0,232,328Zm0-64h48l.01,48H232Z"/><path d="M320,240h48a16.019,16.019,0,0,0,16-16V176a16.019,16.019,0,0,0-16-16H320a16.019,16.019,0,0,0-16,16v48A16.019,16.019,0,0,0,320,240Zm0-64h48l.01,48H320Z"/><path d="M320,152h48a16.019,16.019,0,0,0,16-16V88a16.019,16.019,0,0,0-16-16H320a16.019,16.019,0,0,0-16,16v48A16.019,16.019,0,0,0,320,152Zm0-64h48l.01,48H320Z"/><path d="M320,328h48a16.019,16.019,0,0,0,16-16V264a16.019,16.019,0,0,0-16-16H320a16.019,16.019,0,0,0-16,16v48A16.019,16.019,0,0,0,320,328Zm0-64h48l.01,48H320Z"/><path d="M144,240h48a16.019,16.019,0,0,0,16-16V176a16.019,16.019,0,0,0-16-16H144a16.019,16.019,0,0,0-16,16v48A16.019,16.019,0,0,0,144,240Zm0-64h48l.01,48H144Z"/><path d="M144,152h48a16.019,16.019,0,0,0,16-16V88a16.019,16.019,0,0,0-16-16H144a16.019,16.019,0,0,0-16,16v48A16.019,16.019,0,0,0,144,152Zm0-64h48l.01,48H144Z"/><path d="M144,328h48a16.019,16.019,0,0,0,16-16V264a16.019,16.019,0,0,0-16-16H144a16.019,16.019,0,0,0-16,16v48A16.019,16.019,0,0,0,144,328Zm0-64h48l.01,48H144Z"/></g></svg>
