<?xml version="1.0" encoding="UTF-8"?>
<svg id="Layer_1" xmlns="http://www.w3.org/2000/svg" xmlns:xlink="http://www.w3.org/1999/xlink" version="1.1" viewBox="0 0 32 32">
  <!-- Generator: Adobe Illustrator 29.3.1, SVG Export Plug-In . SVG Version: 2.1.0 Build 151)  -->
  <defs>
    <style>
      .st0 {
        fill: none;
      }

      .st1 {
        fill: #010101;
      }
    </style>
  </defs>
  <rect class="st0" width="31.6" height="32"/>
  <g>
    <path class="st1" d="M24.7,7.6H7.8c-.6,0-1.1.5-1.1,1.1v11.4c0,.6.5,1.1,1.1,1.1h5.6l-.2.9h-1.6c-.2,0-.3.1-.3.3v.9c0,.2.1.3.3.3h9.2c.2,0,.3-.1.3-.3v-.9c0-.2-.1-.3-.3-.3h-1.6l-.2-.9h5.7c.6,0,1.1-.5,1.1-1.1v-11.4c0-.6-.5-1.1-1.1-1.1ZM20.6,22.7v.3h-8.6v-.3h8.6ZM13.8,22.1l.2-.9h4.4l.2.9h-4.8ZM25.2,20.1c0,.3-.2.5-.5.5H7.8c-.3,0-.5-.2-.5-.5v-.8h17.8v.8ZM25.2,18.7H7.3v-10c0-.3.2-.5.5-.5h16.9c.3,0,.5.2.5.5v10Z"/>
    <path class="st1" d="M15.3,15h1.8c.3,0,.6-.3.6-.6v-1.8c0-.3-.3-.6-.6-.6h-1.8c-.3,0-.6.3-.6.6v1.8c0,.3.3.6.6.6ZM15.3,12.5h1.8v1.8s-1.8,0-1.8,0v-1.8Z"/>
    <path class="st1" d="M15.3,11.6h1.8c.3,0,.6-.3.6-.6v-1.8c0-.3-.3-.6-.6-.6h-1.8c-.3,0-.6.3-.6.6v1.8c0,.3.3.6.6.6ZM15.3,9.1h1.8v1.8s-1.8,0-1.8,0v-1.8Z"/>
    <path class="st1" d="M15.3,18.4h1.8c.3,0,.6-.3.6-.6v-1.8c0-.3-.3-.6-.6-.6h-1.8c-.3,0-.6.3-.6.6v1.8c0,.3.3.6.6.6ZM15.3,15.9h1.8v1.8s-1.8,0-1.8,0v-1.8Z"/>
    <path class="st1" d="M18.7,15h1.8c.3,0,.6-.3.6-.6v-1.8c0-.3-.3-.6-.6-.6h-1.8c-.3,0-.6.3-.6.6v1.8c0,.3.3.6.6.6ZM18.7,12.5h1.8v1.8s-1.8,0-1.8,0v-1.8Z"/>
    <path class="st1" d="M18.7,11.6h1.8c.3,0,.6-.3.6-.6v-1.8c0-.3-.3-.6-.6-.6h-1.8c-.3,0-.6.3-.6.6v1.8c0,.3.3.6.6.6ZM18.7,9.1h1.8v1.8s-1.8,0-1.8,0v-1.8Z"/>
    <path class="st1" d="M18.7,18.4h1.8c.3,0,.6-.3.6-.6v-1.8c0-.3-.3-.6-.6-.6h-1.8c-.3,0-.6.3-.6.6v1.8c0,.3.3.6.6.6ZM18.7,15.9h1.8v1.8s-1.8,0-1.8,0v-1.8Z"/>
    <path class="st1" d="M11.9,15h1.8c.3,0,.6-.3.6-.6v-1.8c0-.3-.3-.6-.6-.6h-1.8c-.3,0-.6.3-.6.6v1.8c0,.3.3.6.6.6ZM11.9,12.5h1.8v1.8s-1.8,0-1.8,0v-1.8Z"/>
    <path class="st1" d="M11.9,11.6h1.8c.3,0,.6-.3.6-.6v-1.8c0-.3-.3-.6-.6-.6h-1.8c-.3,0-.6.3-.6.6v1.8c0,.3.3.6.6.6ZM11.9,9.1h1.8v1.8s-1.8,0-1.8,0v-1.8Z"/>
    <path class="st1" d="M11.9,18.4h1.8c.3,0,.6-.3.6-.6v-1.8c0-.3-.3-.6-.6-.6h-1.8c-.3,0-.6.3-.6.6v1.8c0,.3.3.6.6.6ZM11.9,15.9h1.8v1.8s-1.8,0-1.8,0v-1.8Z"/>
  </g>
</svg>