<?xml version="1.0" encoding="UTF-8"?>
<svg id="Layer_1" xmlns="http://www.w3.org/2000/svg" xmlns:xlink="http://www.w3.org/1999/xlink" version="1.1" viewBox="0 0 32 32">
  <!-- Generator: Adobe Illustrator 29.3.1, SVG Export Plug-In . SVG Version: 2.1.0 Build 151)  -->
  <defs>
    <style>
      .st0 {
        fill: none;
      }

      .st1 {
        fill: #010101;
      }
    </style>
  </defs>
  <rect class="st0" width="31.6" height="32"/>
  <path class="st1" d="M27.8,19.4c0,0,0-.2,0-.2,0,0-.2-.1-.3-.1h-2.9v-8.5h1.9v-.8h-3.9v-3.3c0-.2-.2-.4-.4-.4H7.2c-.2,0-.4.2-.4.4v3.3h-3.9v.8h1.9v15.2c0,.2.2.4.4.4h23.2c.2,0,.4-.2.4-.4,0,0,0,0,0,0l-1-6.3h0ZM23.6,10.5v7.2h-1.9v-.6c0-1.1-.8-1.9-1.9-2,.6-.9.4-2.1-.4-2.7-.9-.6-2.1-.4-2.7.4-.5.7-.5,1.6,0,2.3-1,0-1.8,1-1.9,2v.6h-4.1v-7.2h12.9ZM19.7,15.9c.7,0,1.2.5,1.2,1.2v.6h-5.2v-.6c0-.7.5-1.2,1.2-1.2h2.8ZM17.2,14c0-.6.5-1.1,1.1-1.1s1.1.5,1.1,1.1-.5,1.1-1.1,1.1h0c-.6,0-1.1-.5-1.1-1.1h0ZM21.7,6.8v2.9h-5.5l-3.2-2.9h8.7ZM11.8,6.8l3.2,2.9h-2l-3.1-2.9h1.9ZM7.6,6.8h1.1l3.1,2.9h-4.2v-2.9ZM5.6,10.5h4.3v7.2h-4.3v-7.2ZM10,25.3h-4.3v-3.9h1.8c1.4,0,2.5,1.1,2.5,2.5v1.4ZM21.7,25.3h-10.9v-1.4c0-.1,0-.2,0-.3h11.1l-.2,1.7ZM22.2,19.4l-.3,3.4h-11.3c-.5-1.3-1.7-2.2-3.2-2.2h-1.8v-2h9.6s0,0,0,0h6s0,0,0,0h2.3v.5h-1c-.2,0-.4.2-.4.4h0ZM26.5,25.3h-3.9l.5-5.4h3.9l-.4,5.4ZM27.3,25.3l.2-2.4.4,2.4h-.6Z"/>
  <path class="st1" d="M6.7,12h2.2v.8h-2.2v-.8Z"/>
  <path class="st1" d="M6.7,13.7h2.2v.8h-2.2v-.8Z"/>
  <path class="st1" d="M6.7,15.5h2.2v.8h-2.2v-.8Z"/>
</svg>