<?xml version="1.0" encoding="UTF-8"?>
<svg id="Layer_1" xmlns="http://www.w3.org/2000/svg" xmlns:xlink="http://www.w3.org/1999/xlink" version="1.1" viewBox="0 0 32 32">
  <!-- Generator: Adobe Illustrator 29.3.1, SVG Export Plug-In . SVG Version: 2.1.0 Build 151)  -->
  <defs>
    <style>
      .st0 {
        fill: none;
      }

      .st1 {
        fill: #fff;
      }
    </style>
  </defs>
  <rect class="st0" width="31.6" height="32"/>
  <g id="surface1">
    <path class="st1" d="M21.1,13.9l-.4.5,1.9,1.7c.4.4.7,1,.7,1.6v7.5h.6v-7.5c0-.8-.3-1.5-.9-2l-1.9-1.7Z"/>
    <path class="st1" d="M18.7,6.8h-8c-.8,0-1.5.7-1.5,1.5v15.4c0,.8.7,1.5,1.5,1.5h7.7v-.6c0-1.4.4-2.7,1.2-3.9,0-.1,0-.3,0-.4l-2.2-2.2c-.2-.2-.3-.5-.3-.8,0-.3.1-.5.4-.7.4-.3,1-.3,1.4.1l3,3,.4-.4-2.1-2.1v-9.1c0-.8-.7-1.5-1.5-1.5ZM19.6,16.8l-.4-.4c-.6-.6-1.5-.7-2.2-.1-.4.3-.6.7-.6,1.2,0,.5.1.9.5,1.2l2,2c-.7,1.2-1.1,2.6-1.1,4h-7.1c-.5,0-.9-.4-.9-.9v-.9h7.7v-.6h-7.7v-12.9h9.8v7.6ZM19.6,8.6h-9.8v-.3c0-.5.4-.9.9-.9h8c.5,0,.9.4.9.9v.3Z"/>
    <path class="st1" d="M11,12.3h1.2c.3,0,.6-.3.6-.6v-1.2c0-.3-.3-.6-.6-.6h-1.2c-.3,0-.6.3-.6.6v1.2c0,.3.3.6.6.6ZM11,10.5h1.2v1.2h-1.2v-1.2Z"/>
    <path class="st1" d="M14,12.3h1.2c.3,0,.6-.3.6-.6v-1.2c0-.3-.3-.6-.6-.6h-1.2c-.3,0-.6.3-.6.6v1.2c0,.3.3.6.6.6ZM14,10.5h1.2v1.2h-1.2v-1.2Z"/>
    <path class="st1" d="M17.1,12.3h1.2c.3,0,.6-.3.6-.6v-1.2c0-.3-.3-.6-.6-.6h-1.2c-.3,0-.6.3-.6.6v1.2c0,.3.3.6.6.6ZM17.1,10.5h1.2v1.2h-1.2v-1.2Z"/>
    <path class="st1" d="M11,15.4h1.2c.3,0,.6-.3.6-.6v-1.2c0-.3-.3-.6-.6-.6h-1.2c-.3,0-.6.3-.6.6v1.2c0,.3.3.6.6.6ZM11,13.5h1.2v1.2h-1.2v-1.2Z"/>
    <path class="st1" d="M11,18.5h1.2c.3,0,.6-.3.6-.6v-1.2c0-.3-.3-.6-.6-.6h-1.2c-.3,0-.6.3-.6.6v1.2c0,.3.3.6.6.6ZM11,16.6h1.2v1.2h-1.2v-1.2Z"/>
    <path class="st1" d="M14,15.4h1.2c.3,0,.6-.3.6-.6v-1.2c0-.3-.3-.6-.6-.6h-1.2c-.3,0-.6.3-.6.6v1.2c0,.3.3.6.6.6ZM14,13.5h1.2v1.2h-1.2v-1.2Z"/>
    <path class="st1" d="M17.1,15.4h1.2c.3,0,.6-.3.6-.6v-1.2c0-.3-.3-.6-.6-.6h-1.2c-.3,0-.6.3-.6.6v1.2c0,.3.3.6.6.6ZM17.1,13.5h1.2v1.2h-1.2v-1.2Z"/>
    <path class="st1" d="M14,18.5h1.2c.3,0,.6-.3.6-.6v-1.2c0-.3-.3-.6-.6-.6h-1.2c-.3,0-.6.3-.6.6v1.2c0,.3.3.6.6.6ZM14,16.6h1.2v1.2h-1.2v-1.2Z"/>
    <path class="st1" d="M11,21.5h1.2c.3,0,.6-.3.6-.6v-1.2c0-.3-.3-.6-.6-.6h-1.2c-.3,0-.6.3-.6.6v1.2c0,.3.3.6.6.6ZM11,19.7h1.2v1.2h-1.2v-1.2Z"/>
    <path class="st1" d="M14,21.5h1.2c.3,0,.6-.3.6-.6v-1.2c0-.3-.3-.6-.6-.6h-1.2c-.3,0-.6.3-.6.6v1.2c0,.3.3.6.6.6ZM14,19.7h1.2v1.2h-1.2v-1.2Z"/>
    <path class="st1" d="M14.3,23.4h.6v.6h-.6v-.6Z"/>
  </g>
</svg>