<svg height="512pt" viewBox="0 0 512 512" width="512pt" xmlns="http://www.w3.org/2000/svg"><path d="m446.335938 0h-380.671876c-36.207031 0-65.664062 29.457031-65.664062 65.664062v380.671876c0 36.207031 29.457031 65.664062 65.664062 65.664062h380.671876c36.207031 0 65.664062-29.457031 65.664062-65.664062v-380.671876c0-36.207031-29.457031-65.664062-65.664062-65.664062zm-380.671876 30h380.671876c19.664062 0 35.664062 16 35.664062 35.664062v350.695313h-452v-350.695313c0-19.664062 16-35.664062 35.664062-35.664062zm380.671876 452h-380.671876c-19.65625 0-35.652343-15.984375-35.664062-35.640625h452c-.011719 19.65625-16.007812 35.640625-35.664062 35.640625zm0 0"/><path d="m282.324219 80.042969h-52.648438c-8.285156 0-15-6.714844-15-15 0-8.285157 6.714844-15 15-15h52.648438c8.285156 0 15 6.714843 15 15 0 8.285156-6.714844 15-15 15zm0 0"/><path d="m149.148438 240.46875h-51.59375c-16.71875 0-30.320313-13.601562-30.320313-30.320312v-51.59375c0-16.71875 13.601563-30.320313 30.320313-30.320313h51.59375c16.71875 0 30.320312 13.601563 30.320312 30.320313v51.59375c0 16.71875-13.601562 30.320312-30.320312 30.320312zm-51.59375-82.234375c-.175782 0-.320313.144531-.320313.320313v51.59375c0 .175781.144531.316406.320313.316406h51.59375c.175781 0 .320312-.140625.320312-.316406v-51.59375c0-.175782-.144531-.320313-.320312-.320313zm0 0"/><path d="m281.367188 240.46875h-51.59375c-16.71875 0-30.320313-13.601562-30.320313-30.320312v-51.59375c0-16.71875 13.601563-30.320313 30.320313-30.320313h51.59375c16.71875 0 30.320312 13.601563 30.320312 30.320313v51.59375c0 16.71875-13.601562 30.320312-30.320312 30.320312zm-51.59375-82.234375c-.175782 0-.320313.144531-.320313.320313v51.59375c0 .175781.144531.316406.320313.316406h51.59375c.175781 0 .320312-.140625.320312-.316406v-51.59375c0-.175782-.144531-.320313-.320312-.320313zm0 0"/><path d="m412.796875 240.46875h-51.59375c-16.71875 0-30.320313-13.601562-30.320313-30.320312v-51.59375c0-16.71875 13.601563-30.320313 30.320313-30.320313h51.59375c16.71875 0 30.316406 13.601563 30.316406 30.320313v51.59375c.003907 16.71875-13.597656 30.320312-30.316406 30.320312zm-51.59375-82.234375c-.175781 0-.320313.144531-.320313.320313v51.59375c0 .175781.144532.316406.320313.316406h51.59375c.175781 0 .320313-.140625.320313-.316406v-51.59375c0-.175782-.144532-.320313-.320313-.320313zm0 0"/><path d="m149.542969 372.269531h-51.59375c-16.71875 0-30.320313-13.601562-30.320313-30.320312v-51.59375c0-16.71875 13.601563-30.320313 30.320313-30.320313h51.59375c16.71875 0 30.320312 13.601563 30.320312 30.320313v51.59375c0 16.71875-13.601562 30.320312-30.320312 30.320312zm-51.59375-82.234375c-.175781 0-.320313.144532-.320313.320313v51.59375c0 .175781.144532.320312.320313.320312h51.59375c.175781 0 .320312-.144531.320312-.320312v-51.59375c0-.175781-.144531-.320313-.320312-.320313zm0 0"/><path d="m281.761719 372.269531h-51.59375c-16.71875 0-30.320313-13.601562-30.320313-30.320312v-51.59375c0-16.71875 13.601563-30.320313 30.320313-30.320313h51.59375c16.71875 0 30.320312 13.601563 30.320312 30.320313v51.59375c0 16.71875-13.601562 30.320312-30.320312 30.320312zm-51.59375-82.234375c-.175781 0-.320313.144532-.320313.320313v51.59375c0 .175781.144532.320312.320313.320312h51.59375c.175781 0 .320312-.144531.320312-.320312v-51.59375c0-.175781-.144531-.320313-.320312-.320313zm0 0"/><path d="m413.191406 372.269531h-51.59375c-16.71875 0-30.320312-13.601562-30.320312-30.320312v-51.59375c0-16.71875 13.601562-30.320313 30.320312-30.320313h51.59375c16.71875 0 30.320313 13.601563 30.320313 30.320313v51.59375c0 16.71875-13.601563 30.320312-30.320313 30.320312zm-51.59375-82.234375c-.175781 0-.320312.144532-.320312.320313v51.59375c0 .175781.144531.320312.320312.320312h51.59375c.175782 0 .320313-.144531.320313-.320312v-51.59375c0-.175781-.144531-.320313-.320313-.320313zm0 0"/></svg>