<?xml version="1.0" encoding="UTF-8"?>
<svg id="Layer_1" xmlns="http://www.w3.org/2000/svg" xmlns:xlink="http://www.w3.org/1999/xlink" version="1.1" viewBox="0 0 220 220">
  <!-- Generator: Adobe Illustrator 29.3.1, SVG Export Plug-In . SVG Version: 2.1.0 Build 151)  -->
  <defs>
    <style>
      .st0 {
        fill: url(#linear-gradient2);
      }

      .st1 {
        fill: url(#linear-gradient1);
      }

      .st2 {
        fill: url(#linear-gradient3);
      }

      .st3 {
        fill: url(#linear-gradient5);
      }

      .st4 {
        fill: url(#linear-gradient4);
      }

      .st5 {
        fill: url(#linear-gradient);
      }

      .st6 {
        fill: #fff;
      }
    </style>
    <linearGradient id="linear-gradient" x1="163" y1="84.7" x2="214.9" y2="84.7" gradientUnits="userSpaceOnUse">
      <stop offset="0" stop-color="#6138f3"/>
      <stop offset="1" stop-color="#cccfe8"/>
    </linearGradient>
    <linearGradient id="linear-gradient1" x1="96.3" y1="119.1" x2="157.5" y2="119.1" xlink:href="#linear-gradient"/>
    <linearGradient id="linear-gradient2" x1="97.6" y1="117.1" x2="201.2" y2="117.1" gradientUnits="userSpaceOnUse">
      <stop offset="0" stop-color="#6138f3"/>
      <stop offset=".7" stop-color="#cccfe8"/>
      <stop offset="1" stop-color="#9f75f8"/>
    </linearGradient>
    <linearGradient id="linear-gradient3" x1="1619.4" y1="-1468.1" x2="1671.3" y2="-1468.1" gradientTransform="translate(1758.3 -1407.1) rotate(-180)" gradientUnits="userSpaceOnUse">
      <stop offset="0" stop-color="#33a4ca"/>
      <stop offset=".1" stop-color="#38a6cc"/>
      <stop offset=".3" stop-color="#48aed1"/>
      <stop offset=".5" stop-color="#63bbdb"/>
      <stop offset=".8" stop-color="#88cde8"/>
      <stop offset="1" stop-color="#b7e4f9"/>
      <stop offset="1" stop-color="#b9e5fa"/>
    </linearGradient>
    <linearGradient id="linear-gradient4" x1="1552.7" y1="-1433.6" x2="1613.9" y2="-1433.6" gradientTransform="translate(1758.3 -1407.1) rotate(-180)" gradientUnits="userSpaceOnUse">
      <stop offset="0" stop-color="#35aad1"/>
      <stop offset=".1" stop-color="#3aacd2"/>
      <stop offset=".3" stop-color="#4ab3d7"/>
      <stop offset=".5" stop-color="#65bfdf"/>
      <stop offset=".8" stop-color="#8ad0eb"/>
      <stop offset="1" stop-color="#b9e5fa"/>
    </linearGradient>
    <linearGradient id="linear-gradient5" x1="1553.9" y1="-1435.6" x2="1657.5" y2="-1435.6" gradientTransform="translate(1758.3 -1407.1) rotate(-180)" gradientUnits="userSpaceOnUse">
      <stop offset="0" stop-color="#32a3c8"/>
      <stop offset=".7" stop-color="#b9e5fa"/>
      <stop offset="1" stop-color="#6ccff6"/>
    </linearGradient>
  </defs>
  <g>
    <path class="st5" d="M214.5,59.7l-14.7,29.8-19.8,25.1-17.1-2.3s5.5-1.4,10.9-11.2c3.5-6.4,12.3-22.5,18-32.8,3.3-6,8.8-10.4,15.4-12.2l3.5-1c2.7-.8,5.1,2.1,3.8,4.6Z"/>
    <path class="st1" d="M97.5,134.8l33.8-42c1.3-1.6,3.4-2.4,5.4-2l4.6.9c3.4.7,5.4,4.2,4.2,7.4l-6.1,16.6c-1.1,3,.5,6.2,3.5,7.2l10.7,3.5c4.9,1.6,5.2,8.4.5,10.4l-23.2,10c-.9.4-2,.5-3,.4l-26.8-3.6c-4.3-.6-6.3-5.7-3.6-9Z"/>
    <path class="st6" d="M202,85.8l-9.5,20.6s-7.9,17-24,23.9c-16.1,6.9-38.2,16.5-38.2,16.5l-18.5-2.5c-5.3-.7-23.6-2.4,1.2-9.6l27.7-14.5,25.1-9.6s22.9-2.3,36.3-24.8Z"/>
    <path class="st0" d="M201.2,86.7l-9.5,20.6s-7.9,17-24,23.9c-16.1,6.9-38.2,16.5-38.2,16.5l-18.5-2.5c-5.3-.7-26.3-3-1.5-10.1l30.4-14,25.1-9.6s22.9-2.3,36.3-24.8Z"/>
  </g>
  <g>
    <path class="st2" d="M87.3,86l14.7-29.8,19.8-25.1,17.1,2.3s-5.5,1.4-10.9,11.2c-3.5,6.4-12.3,22.5-18,32.8-3.3,6-8.8,10.4-15.4,12.2l-3.5,1c-2.7.8-5.1-2.1-3.8-4.6Z"/>
    <path class="st4" d="M204.4,10.9l-33.8,42c-1.3,1.6-3.4,2.4-5.4,2l-4.6-.9c-3.4-.7-5.4-4.2-4.2-7.4l6.1-16.6c1.1-3-.5-6.2-3.5-7.2l-10.7-3.5c-4.9-1.6-5.2-8.4-.5-10.4l23.2-10c.9-.4,2-.5,3-.4l26.8,3.6c4.3.6,6.3,5.7,3.6,9Z"/>
    <path class="st6" d="M99.9,59.8l9.5-20.6s7.9-17,24-23.9c16.1-6.9,38.2-16.5,38.2-16.5l18.5,2.5c5.3.7,23.6,2.4-1.2,9.6l-27.7,14.5-25.1,9.6s-22.9,2.3-36.3,24.8Z"/>
    <path class="st3" d="M100.7,59l9.5-20.6s7.9-17,24-23.9C150.3,7.6,172.4-2,172.4-2l18.5,2.5c5.3.7,26.3,3,1.5,10.1l-30.4,14-25.1,9.6s-22.9,2.3-36.3,24.8Z"/>
  </g>
</svg>