<?xml version="1.0" encoding="UTF-8"?>
<svg id="Layer_1" xmlns="http://www.w3.org/2000/svg" xmlns:xlink="http://www.w3.org/1999/xlink" version="1.1" viewBox="0 0 194 89.1">
  <!-- Generator: Adobe Illustrator 29.3.1, SVG Export Plug-In . SVG Version: 2.1.0 Build 151)  -->
  <defs>
    <style>
      .st0 {
        fill: url(#linear-gradient2);
      }

      .st1 {
        fill: url(#linear-gradient1);
      }

      .st2 {
        fill: url(#linear-gradient3);
      }

      .st3 {
        fill: url(#linear-gradient5);
      }

      .st4 {
        fill: url(#linear-gradient4);
      }

      .st5 {
        fill: url(#linear-gradient);
      }

      .st6 {
        fill: #fff;
      }

      .st7 {
        fill: #4f96d0;
      }

      .st8 {
        fill: #7670b3;
      }
    </style>
    <linearGradient id="linear-gradient" x1="109.8" y1="27.4" x2="146" y2="27.4" gradientTransform="translate(31.8 -74.4) rotate(45.9)" gradientUnits="userSpaceOnUse">
      <stop offset="0" stop-color="#4d54ce"/>
      <stop offset="1" stop-color="#cbebfb"/>
    </linearGradient>
    <linearGradient id="linear-gradient1" x1="59.2" y1="50.6" x2="101.8" y2="50.6" gradientTransform="translate(31.8 -74.4) rotate(45.9)" gradientUnits="userSpaceOnUse">
      <stop offset="0" stop-color="#4d54ce"/>
      <stop offset="1" stop-color="#cbebfb"/>
    </linearGradient>
    <linearGradient id="linear-gradient2" x1="64.2" y1="50" x2="136.4" y2="50" gradientTransform="translate(31.8 -74.4) rotate(45.9)" gradientUnits="userSpaceOnUse">
      <stop offset="0" stop-color="#4d54ce"/>
      <stop offset=".5" stop-color="#cbebfb"/>
      <stop offset="1" stop-color="#4d54ce"/>
    </linearGradient>
    <linearGradient id="linear-gradient3" x1="1599.9" y1="-1528.7" x2="1636" y2="-1528.7" gradientTransform="translate(2318.4 120.8) rotate(-134.1)" gradientUnits="userSpaceOnUse">
      <stop offset="0" stop-color="#8d93ff"/>
      <stop offset=".2" stop-color="#9096fe"/>
      <stop offset=".5" stop-color="#9ba0fb"/>
      <stop offset=".7" stop-color="#adb1f7"/>
      <stop offset=".9" stop-color="#c7c8f1"/>
      <stop offset="1" stop-color="#dadaed"/>
    </linearGradient>
    <linearGradient id="linear-gradient4" x1="1548.7" y1="-1502.8" x2="1591.4" y2="-1502.8" xlink:href="#linear-gradient3"/>
    <linearGradient id="linear-gradient5" x1="1554.3" y1="-1506.1" x2="1626.5" y2="-1506.1" gradientTransform="translate(2318.4 120.8) rotate(-134.1)" gradientUnits="userSpaceOnUse">
      <stop offset="0" stop-color="#8d93ff"/>
      <stop offset=".7" stop-color="#dadaed"/>
      <stop offset="1" stop-color="#8d93ff"/>
    </linearGradient>
  </defs>
  <g>
    <g>
      <path class="st7" d="M92.7,78.3c-.6,0-1.1-.2-1.5-.5-.4-.3-.6-.9-.6-1.5v-1.9h1.7v1.9h4c.5,0,.8,0,1.1-.2.3-.1.5-.2.7-.4.2-.2.3-.4.4-.6,0-.2,0-.5,0-.7,0-.6-.2-1.1-.5-1.7-.3-.6-1-1.3-1.8-2.2l-2.6-2.8,1.6-1.5,2.4,2.8c.5.6.9,1.1,1.2,1.5.3.5.6.9.8,1.4.2.4.4.9.5,1.3,0,.4.1.9.1,1.3,0,1.2-.4,2.1-1.1,2.8s-1.8,1-3.1,1h-3.5Z"/>
      <path class="st7" d="M103.2,60.3h1.8v18h-1.8v-18Z"/>
      <path class="st7" d="M109.6,78.3c-.6,0-1.1-.2-1.5-.5s-.6-.9-.6-1.5v-1.9h1.7v1.9h3.3c.6,0,1,0,1.4,0,.4,0,.6,0,.9-.2.2,0,.4-.2.4-.3,0-.1.1-.3.1-.5s0-.4-.1-.7c0-.3-.2-.7-.4-1.3l-2.3-6.4,1.7-.6,2.5,6.8c.2.7.5,1.2.6,1.6.2.4.4.7.6,1,.2.2.4.4.6.5.2,0,.4.1.7.1h.6v1.6l-.5.5c-.4,0-.8,0-1.2-.1-.3,0-.6-.2-.9-.4-.3-.2-.5-.4-.7-.7-.2-.3-.4-.6-.6-1h-.1c0,.8-.4,1.4-.9,1.7s-1.3.5-2.3.5h-3Z"/>
      <path class="st7" d="M119.3,76.7l.5-.5h2.6v1.6l-.5.5h-2.6v-1.6Z"/>
      <path class="st7" d="M121.9,76.7l.5-.5h2.6v1.6l-.5.5h-2.6v-1.6Z"/>
      <path class="st7" d="M124.5,76.7l.5-.5h2.6v1.6l-.5.5h-2.6v-1.6Z"/>
      <path class="st7" d="M127.1,76.7l.5-.5h2.6v1.6l-.5.5h-2.6v-1.6Z"/>
      <path class="st7" d="M129.7,76.7l.5-.5h2.6v1.6l-.5.5h-2.6v-1.6Z"/>
      <path class="st7" d="M132.3,76.7l.5-.5h2.6v1.6l-.5.5h-2.6v-1.6Z"/>
      <path class="st7" d="M134.9,76.7l.5-.5h2.6v1.6l-.5.5h-2.6v-1.6Z"/>
      <path class="st7" d="M137.5,76.7l.5-.5h2.6v1.6l-.5.5h-2.6v-1.6Z"/>
      <path class="st7" d="M140.1,76.7l.5-.5h2.6v1.6l-.5.5h-2.6v-1.6Z"/>
      <path class="st7" d="M142.7,76.7l.5-.5h2.6v1.6l-.5.5h-2.6v-1.6Z"/>
      <path class="st7" d="M145.4,76.7l.5-.5h2.6v1.6l-.5.5h-2.6v-1.6Z"/>
      <path class="st7" d="M148,76.7l.5-.5h2.6v1.6l-.5.5h-2.6v-1.6Z"/>
      <path class="st7" d="M153.8,76.9c-.4.5-.8.9-1.3,1.1-.5.2-1.1.3-1.9.3v-1.6l.5-.5c.3,0,.6,0,.8-.1.2,0,.4-.2.6-.4.2-.2.3-.4.5-.7.1-.3.3-.6.4-1l.7-1.8c.4-1,.9-1.7,1.5-2.3.6-.5,1.4-.8,2.5-.8s2.1.5,2.8,1.6,1,2.6,1,4.5v1.1l-1.4,2.1-6.5-1.7ZM154.7,75l5.3,1.4v-1c0-1.3-.2-2.3-.6-3-.4-.7-1-1.1-1.7-1.1s-1.1.2-1.4.6-.6.8-.8,1.4l-.7,1.7Z"/>
      <path class="st7" d="M163.1,83.2h.9c-.1-.3-.2-.5-.3-.7,0-.2-.1-.4-.1-.7,0-.6.2-1.2.6-1.6.4-.4,1-.6,1.6-.6s.8,0,1.1.3c.4.2.7.4.9.7l-.9,1.1c-.3-.4-.7-.6-1.1-.6s-.5,0-.7.2c-.2.2-.3.3-.3.6,0,.3.2.6.5.8.3.2.7.3,1.3.3h1.6v1.6h-5v-1.5ZM164.7,60.3h1.8v18h-1.8v-18Z"/>
    </g>
    <g>
      <path class="st8" d="M42.2,82.5c-2.1,0-3.8-.5-5-1.6-1.2-1.1-1.8-2.6-1.8-4.5s.1-1.5.3-2.4c.2-.8.5-1.7.8-2.5l1.5.5c-.3.6-.6,1.3-.8,2-.2.7-.3,1.3-.3,2,0,1.4.4,2.5,1.2,3.2.8.8,1.9,1.1,3.2,1.1h1.5c1.7,0,3-.3,3.8-1,.8-.7,1.2-1.8,1.2-3.3s0-.5,0-.8c0-.3,0-.5,0-.9,0-.3,0-.7-.2-1.1,0-.4-.2-.8-.3-1.3l-.4-2,1.7-.3.4,2c0,.5.2,1,.2,1.4,0,.4.1.8.2,1.1,0,.3,0,.7,0,1,0,.3,0,.6,0,.8,0,2.2-.6,3.9-1.8,4.9-1.2,1-3.1,1.6-5.6,1.6ZM42.5,69.1c-.3,0-.6,0-.8-.3-.2-.2-.3-.5-.3-.9s0-.7.3-.9c.2-.2.5-.3.8-.3h.3c.3,0,.6,0,.8.3.2.2.3.5.3.9s0,.7-.3.9c-.2.2-.5.3-.8.3h-.3Z"/>
      <path class="st8" d="M51.3,82.4h1.3c1.8,0,3.1-.3,4.1-1s1.6-1.6,1.8-2.8h-2.9c-1.3,0-2.3-.3-3-1-.7-.7-1.1-1.6-1.1-2.9s.1-1.4.3-2.1c.2-.6.5-1.2.9-1.7.4-.5.9-.9,1.4-1.1.5-.3,1.1-.4,1.8-.4,1.3,0,2.4.6,3.2,1.8.8,1.2,1.2,2.9,1.2,5.1v.3h1.1v1.6l-.5.5h-.9c-.4,1.9-1.2,3.3-2.4,4.3-1.2,1-2.9,1.5-5.1,1.5h-1.3v-2.1ZM53.3,74.5c0,.7.2,1.2.6,1.6.4.3,1,.5,1.8.5h3v-.8c0-1.3-.2-2.4-.7-3.1s-1.2-1.2-2-1.2-1.5.3-1.9.8c-.4.6-.7,1.3-.7,2.2Z"/>
      <path class="st8" d="M61,77l.5-.5h4.5c0,0-3.4-4.3-3.4-4.3v-2.1c.7-.4,1.5-.7,2.3-.9.8-.2,1.7-.3,2.5-.3,1.5,0,2.6.3,3.5.9.8.6,1.2,1.4,1.2,2.5s0,.8-.2,1.1c-.1.3-.3.6-.5.9-.2.3-.6.6-1,1s-.9.7-1.4,1.1h0c0,0,4.1,0,4.1,0v1.6l-.5.5h-1.6c-.7,0-1.3,0-1.9-.3-.6-.2-1.2-.5-1.7-.8-.5.4-1.1.7-1.7.8-.6.2-1.2.3-1.9.3h-2.9v-1.6ZM64.2,71.6l3.4,4.1.3-.2c.4-.3.7-.6,1-.9.3-.2.6-.5.8-.7s.4-.4.5-.6.2-.4.2-.7c0-.5-.3-.9-.8-1.2-.5-.3-1.3-.4-2.3-.4s-1,0-1.5.1c-.5,0-1.1.2-1.6.4h0Z"/>
      <path class="st8" d="M72.6,77l.5-.5h.7c.8,0,1.3-.2,1.7-.5.3-.4.5-.9.5-1.7v-13.7h1.8v13.7c0,1.5-.3,2.6-1,3.3-.6.7-1.7,1-3.1,1h-1.2v-1.6Z"/>
      <path class="st8" d="M81.5,60.6h1.8v18h-1.8v-18Z"/>
    </g>
  </g>
  <g>
    <g>
      <path class="st5" d="M126.1,37.2l-22,7.1-22.2,2.3-7.1-9.7s3.4,2.1,10.8,0,17.2-4.8,25.1-6.9,9.5-.6,13.6,1.8l2.2,1.3c1.7,1,1.4,3.6-.5,4.2Z"/>
      <path class="st1" d="M29.5,11.6l37.4-3.5c1.4-.1,2.8.5,3.6,1.8l1.8,2.8c1.3,2,.5,4.7-1.7,5.7l-11.3,5c-2,.9-2.9,3.3-1.9,5.3l3.4,7.1c1.6,3.2-1.7,6.7-5,5.3l-16.3-6.7c-.7-.3-1.2-.7-1.6-1.3l-11.2-15.1c-1.8-2.4-.3-5.9,2.8-6.2Z"/>
      <path class="st6" d="M106.9,43.6l-14.9,5.2s-12.3,4.3-23.6-.4l-26.7-11.1-7.8-10.5c-2.2-3-10.3-13,5.4-4l20.7,6.8,17,7.9s12.3,10.4,30,6.1Z"/>
      <path class="st0" d="M106.1,43.6l-14.9,5.2s-12.3,4.3-23.6-.4-26.7-11.1-26.7-11.1l-7.8-10.5c-2.2-3-11.3-14.6,4.3-5.7l21.7,8.4,17,7.9s12.3,10.4,30,6.1Z"/>
    </g>
    <g>
      <path class="st2" d="M69.6,23.4l22-7.1,22.2-2.3,7.1,9.7s-3.4-2.1-10.8,0-17.2,4.8-25.1,6.9-9.5.6-13.6-1.8l-2.2-1.3c-1.7-1-1.4-3.6.5-4.2Z"/>
      <path class="st4" d="M168.5,47.5l-37.4,3.5c-1.4.1-2.8-.5-3.6-1.8l-1.8-2.8c-1.3-2-.5-4.7,1.7-5.7l11.3-5c2-.9,2.9-3.3,1.9-5.3l-3.4-7.1c-1.6-3.2,1.7-6.7,5-5.3l16.3,6.7c.7.3,1.2.7,1.6,1.3l11.2,15.1c1.8,2.4.3,5.9-2.8,6.2Z"/>
      <path class="st6" d="M88.8,17l14.9-5.2s12.3-4.3,23.6.4l26.7,11.1,7.8,10.5c2.2,3,10.3,13-5.4,4l-20.7-6.8-17-7.9s-12.3-10.4-30-6.1Z"/>
      <path class="st3" d="M89.6,17l14.9-5.2s12.3-4.3,23.6.4l26.7,11.1,7.8,10.5c2.2,3,11.3,14.6-4.3,5.7l-21.7-8.4-17-7.9s-12.3-10.4-30-6.1Z"/>
    </g>
  </g>
</svg>