<?xml version="1.0" encoding="UTF-8"?>
<svg id="Layer_1" xmlns="http://www.w3.org/2000/svg" xmlns:xlink="http://www.w3.org/1999/xlink" version="1.1" viewBox="0 0 194 45">
  <!-- Generator: Adobe Illustrator 29.3.1, SVG Export Plug-In . SVG Version: 2.1.0 Build 151)  -->
  <defs>
    <style>
      .st0 {
        fill: url(#linear-gradient2);
      }

      .st1 {
        fill: url(#linear-gradient1);
      }

      .st2 {
        fill: url(#linear-gradient3);
      }

      .st3 {
        fill: url(#linear-gradient5);
      }

      .st4 {
        fill: url(#linear-gradient4);
      }

      .st5 {
        fill: url(#linear-gradient);
      }

      .st6 {
        fill: #4f96d0;
        font-size: 17px;
      }

      .st6, .st7 {
        font-family: IBMPlexArabic-Bold, 'IBM Plex Arabic';
        font-weight: 700;
      }

      .st7 {
        fill: #7670b3;
        font-size: 14.4px;
      }

      .st8 {
        fill: #fff;
      }
    </style>
    <linearGradient id="linear-gradient" x1="158.2" y1="-16.7" x2="185.6" y2="-16.7" gradientTransform="translate(4.5 -85.9) rotate(45.9)" gradientUnits="userSpaceOnUse">
      <stop offset="0" stop-color="#4d54ce"/>
      <stop offset="1" stop-color="#cbebfb"/>
    </linearGradient>
    <linearGradient id="linear-gradient1" x1="119.9" y1=".9" x2="152.2" y2=".9" gradientTransform="translate(4.5 -85.9) rotate(45.9)" gradientUnits="userSpaceOnUse">
      <stop offset="0" stop-color="#4d54ce"/>
      <stop offset="1" stop-color="#cbebfb"/>
    </linearGradient>
    <linearGradient id="linear-gradient2" x1="123.7" y1=".4" x2="178.4" y2=".4" gradientTransform="translate(4.5 -85.9) rotate(45.9)" gradientUnits="userSpaceOnUse">
      <stop offset="0" stop-color="#4d54ce"/>
      <stop offset=".5" stop-color="#cbebfb"/>
      <stop offset="1" stop-color="#4d54ce"/>
    </linearGradient>
    <linearGradient id="linear-gradient3" x1="1556.9" y1="-1561.7" x2="1584.3" y2="-1561.7" gradientTransform="translate(2345.7 56.2) rotate(-134.1)" gradientUnits="userSpaceOnUse">
      <stop offset="0" stop-color="#8d93ff"/>
      <stop offset=".2" stop-color="#9096fe"/>
      <stop offset=".5" stop-color="#9ba0fb"/>
      <stop offset=".7" stop-color="#adb1f7"/>
      <stop offset=".9" stop-color="#c7c8f1"/>
      <stop offset="1" stop-color="#dadaed"/>
    </linearGradient>
    <linearGradient id="linear-gradient4" x1="1518.2" y1="-1542.1" x2="1550.5" y2="-1542.1" xlink:href="#linear-gradient3"/>
    <linearGradient id="linear-gradient5" x1="1522.4" y1="-1544.6" x2="1577.1" y2="-1544.6" gradientTransform="translate(2345.7 56.2) rotate(-134.1)" gradientUnits="userSpaceOnUse">
      <stop offset="0" stop-color="#8d93ff"/>
      <stop offset=".7" stop-color="#dadaed"/>
      <stop offset="1" stop-color="#8d93ff"/>
    </linearGradient>
  </defs>
  <text class="st6" transform="translate(5.7 17)"><tspan x="0" y="0">إمـــــــــــــــداد</tspan></text>
  <text class="st7" transform="translate(16.9 38.2)"><tspan x="0" y="0">العـــــــــــــون</tspan></text>
  <g>
    <g>
      <path class="st5" d="M155,26.4l-16.6,5.4-16.8,1.7-5.4-7.3s2.5,1.6,8.2,0,13-3.6,19-5.3c3.5-1,7.2-.5,10.3,1.4l1.6,1c1.3.8,1.1,2.7-.3,3.2Z"/>
      <path class="st1" d="M81.9,7l28.3-2.6c1.1-.1,2.1.4,2.7,1.3l1.4,2.1c1,1.5.4,3.6-1.3,4.3l-8.5,3.8c-1.5.7-2.2,2.5-1.5,4l2.6,5.3c1.2,2.4-1.3,5.1-3.8,4l-12.3-5.1c-.5-.2-.9-.5-1.2-1l-8.5-11.5c-1.4-1.8-.2-4.5,2.1-4.7Z"/>
      <path class="st8" d="M140.5,31.2l-11.3,3.9s-9.3,3.3-17.9-.3c-8.5-3.5-20.2-8.4-20.2-8.4l-5.9-7.9c-1.7-2.3-7.8-9.8,4.1-3.1l15.7,5.1,12.9,6s9.3,7.8,22.7,4.6Z"/>
      <path class="st0" d="M139.9,31.2l-11.3,3.9s-9.3,3.3-17.9-.3-20.2-8.4-20.2-8.4l-5.9-7.9c-1.7-2.3-8.6-11,3.3-4.3l16.4,6.4,12.9,6s9.3,7.8,22.7,4.6Z"/>
    </g>
    <g>
      <path class="st2" d="M112.3,15.9l16.6-5.4,16.8-1.7,5.4,7.3s-2.5-1.6-8.2,0-13,3.6-19,5.3c-3.5,1-7.2.5-10.3-1.4l-1.6-1c-1.3-.8-1.1-2.7.3-3.2Z"/>
      <path class="st4" d="M187.2,34.2l-28.3,2.6c-1.1.1-2.1-.4-2.7-1.3l-1.4-2.1c-1-1.5-.4-3.6,1.3-4.3l8.5-3.8c1.5-.7,2.2-2.5,1.5-4l-2.6-5.3c-1.2-2.4,1.3-5.1,3.8-4l12.3,5.1c.5.2.9.5,1.2,1l8.5,11.5c1.4,1.8.2,4.5-2.1,4.7Z"/>
      <path class="st8" d="M126.8,11.1l11.3-3.9s9.3-3.3,17.9.3c8.5,3.5,20.2,8.4,20.2,8.4l5.9,7.9c1.7,2.3,7.8,9.8-4.1,3.1l-15.7-5.1-12.9-6s-9.3-7.8-22.7-4.6Z"/>
      <path class="st3" d="M127.4,11.1l11.3-3.9s9.3-3.3,17.9.3c8.5,3.5,20.2,8.4,20.2,8.4l5.9,7.9c1.7,2.3,8.6,11-3.3,4.3l-16.4-6.4-12.9-6s-9.3-7.8-22.7-4.6Z"/>
    </g>
  </g>
</svg>